<svg width="82" height="81" viewBox="0 0 82 81" fill="none" xmlns="http://www.w3.org/2000/svg">
<g filter="url(#filter0_d_1_59)">
<path d="M52.6818 70.3486C52.6152 70.1471 52.5467 69.9454 52.4763 69.7436L52.4782 69.7437C52.1473 68.7733 51.6418 67.345 50.9575 65.5514C49.0783 60.6422 46.9822 55.8204 44.6753 51.1005C42.3732 46.378 39.8626 41.7619 37.1511 37.266C36.1581 35.6266 35.344 34.3525 34.7829 33.4932L34.4357 32.968C29.4701 37.0543 24.6395 41.1673 20.2701 44.9601C20.2701 44.9601 26.2225 55.0415 28.6461 60.4908C31.0697 65.9402 34.2 74.4574 34.2 74.4574L41.3965 72.9176C45.0649 72.117 48.8626 71.2563 52.6818 70.3486Z" fill="url(#paint0_linear_1_59)"/>
<path d="M46.7173 20.4978C45.9902 20.4162 45.2608 20.6293 44.6895 21.0903C44.125 21.5459 43.7603 22.207 43.6739 22.9312C43.5875 23.6554 43.7864 24.3849 44.2277 24.9627C42.3149 26.4511 40.3921 27.978 38.4755 29.5238C39.5495 31.1358 40.5884 32.7711 41.5917 34.4288C44.3898 39.0682 46.9805 43.8317 49.356 48.7051C51.7365 53.5769 53.8994 58.554 55.8382 63.6212C56.5301 65.4359 57.1828 67.2656 57.7956 69.109C60.1786 68.5184 62.5498 67.9103 64.8851 67.2887C65.0779 67.9912 65.5362 68.5894 66.1614 68.9547C66.7867 69.3199 67.529 69.4231 68.2289 69.242C68.9287 69.0609 69.5302 68.6101 69.9041 67.9863C70.278 67.3625 70.3944 66.6156 70.2283 65.9062L70.2285 65.9025L70.2257 65.8893L70.2182 65.8627L70.1977 65.7814C70.0789 65.3445 69.9513 64.9101 69.8149 64.4784C69.3751 63.1022 68.8965 61.7389 68.3796 60.3903C66.9875 56.7123 64.626 51.0636 60.7175 43.0599C56.811 35.0545 53.8115 29.7204 51.7733 26.3675C50.7534 24.6892 49.972 23.5065 49.4351 22.7269C49.1679 22.3409 48.9609 22.05 48.814 21.8543L48.6447 21.6254L48.5937 21.5588L48.5766 21.539L48.5716 21.5313L48.5664 21.5254C48.1095 20.949 47.4443 20.5794 46.7173 20.4978Z" fill="url(#paint1_linear_1_59)"/>
<path d="M12.7185 78.6806C13.9682 78.4533 15.5355 78.1617 17.3641 77.8187L29.114 75.5252C29.114 75.5252 26.1936 66.2638 23.9687 61.497C21.7438 56.7301 16.6673 48.143 16.6673 48.143C10.1937 53.7952 6.4045 57.0651 3.47518 59.7442C1.15805 61.8621 0.172349 65.2068 1.28803 68.3216C1.71155 69.5299 2.20006 70.714 2.75138 71.8686C3.30695 73.0102 4.01265 74.1953 4.64717 75.2008C6.4143 77.9926 9.64261 79.2417 12.7185 78.6806Z" fill="url(#paint2_linear_1_59)"/>
<path d="M24.5913 76.429L24.5899 76.4222C20.6222 77.189 21.6586 77.0054 24.5913 76.429Z" fill="url(#paint3_linear_1_59)"/>
<path d="M43.4577 1.08693C44.1475 0.39098 45.083 0 46.0585 0C47.034 0 47.9695 0.39098 48.6593 1.08693C49.349 1.78288 49.7365 2.72679 49.7365 3.71101V9.27752C49.7365 10.2617 49.349 11.2057 48.6593 11.9016C47.9695 12.5976 47.034 12.9885 46.0585 12.9885C45.083 12.9885 44.1475 12.5976 43.4577 11.9016C42.7679 11.2057 42.3804 10.2617 42.3804 9.27752V3.71101C42.3804 2.72679 42.7679 1.78288 43.4577 1.08693Z" fill="#EF9F0B"/>
<path d="M10.1025 33.6576C10.7922 34.3536 11.7278 34.7445 12.7032 34.7445H18.2203C19.1958 34.7445 20.1313 34.3536 20.8211 33.6576C21.5109 32.9617 21.8984 32.0178 21.8984 31.0335C21.8984 30.0493 21.5109 29.1054 20.8211 28.4095C20.1313 27.7135 19.1958 27.3225 18.2203 27.3225H12.7032C11.7278 27.3225 10.7922 27.7135 10.1025 28.4095C9.41268 29.1054 9.02518 30.0493 9.02518 31.0335C9.02518 32.0178 9.41268 32.9617 10.1025 33.6576Z" fill="url(#paint4_linear_1_59)"/>
<path d="M79.9227 37.8787C79.233 38.5746 78.2974 38.9656 77.3219 38.9656H71.8049C70.8294 38.9656 69.8939 38.5746 69.2041 37.8787C68.5143 37.1827 68.1268 36.2388 68.1268 35.2546C68.1268 34.2704 68.5143 33.3265 69.2041 32.6305C69.8939 31.9346 70.8294 31.5436 71.8049 31.5436H77.3219C78.2974 31.5436 79.233 31.9346 79.9227 32.6305C80.6125 33.3265 81 34.2704 81 35.2546C81 36.2388 80.6125 37.1827 79.9227 37.8787Z" fill="#EF9F0B"/>
<path d="M20.2725 12.9526C20.2723 13.9369 20.6596 14.8809 21.3493 15.577L25.2517 19.5143C25.5935 19.8589 25.9991 20.1321 26.4455 20.3185C26.8919 20.5049 27.3703 20.6007 27.8534 20.6006C28.3365 20.6004 28.8149 20.5042 29.2611 20.3175C29.7074 20.1308 30.1128 19.8573 30.4543 19.5125C30.7958 19.1677 31.0667 18.7584 31.2514 18.308C31.4361 17.8576 31.5311 17.3749 31.5309 16.8875C31.5307 16.4001 31.4354 15.9174 31.2504 15.4672C31.0653 15.0169 30.7942 14.6078 30.4525 14.2633L26.5519 10.3296C25.8623 9.6335 24.9268 9.24235 23.9513 9.24217C22.9758 9.242 22.0401 9.63282 21.3502 10.3287C20.6603 11.0245 20.2726 11.9684 20.2725 12.9526Z" fill="url(#paint5_linear_1_59)"/>
<path d="M71.8409 12.9533C71.8409 11.9692 71.4535 11.0255 70.764 10.3296C70.4224 9.98483 70.0169 9.71135 69.5705 9.52476C69.1242 9.33817 68.6458 9.24213 68.1627 9.24213C67.6795 9.24213 67.2011 9.33817 66.7548 9.52476C66.3085 9.71135 65.9029 9.98483 65.5614 10.3296L61.6608 14.2651C61.3095 14.6074 61.0293 15.0169 60.8365 15.4697C60.6438 15.9225 60.5423 16.4094 60.5381 16.9022C60.5338 17.3949 60.6269 17.8836 60.8118 18.3396C60.9968 18.7957 61.2699 19.21 61.6152 19.5585C61.9605 19.9069 62.3712 20.1825 62.8232 20.3691C63.2752 20.5557 63.7596 20.6496 64.248 20.6453C64.7363 20.641 65.2189 20.5386 65.6677 20.3441C66.1164 20.1496 66.5223 19.8669 66.8616 19.5125L70.764 15.577C71.4535 14.881 71.8409 13.9373 71.8409 12.9533Z" fill="url(#paint6_linear_1_59)"/>
<path d="M10.1025 33.6576C10.7922 34.3536 11.7278 34.7445 12.7032 34.7445H18.2203C19.1958 34.7445 20.1313 34.3536 20.8211 33.6576C21.5109 32.9617 21.8984 32.0178 21.8984 31.0335C21.8984 30.0493 21.5109 29.1054 20.8211 28.4095C20.1313 27.7135 19.1958 27.3225 18.2203 27.3225H12.7032C11.7278 27.3225 10.7922 27.7135 10.1025 28.4095C9.41268 29.1054 9.02518 30.0493 9.02518 31.0335C9.02518 32.0178 9.41268 32.9617 10.1025 33.6576Z" fill="url(#paint7_linear_1_59)"/>
<path d="M43.4577 1.08693C44.1475 0.39098 45.083 0 46.0585 0C47.034 0 47.9695 0.39098 48.6593 1.08693C49.349 1.78288 49.7365 2.72679 49.7365 3.71101V9.27752C49.7365 10.2617 49.349 11.2057 48.6593 11.9016C47.9695 12.5976 47.034 12.9885 46.0585 12.9885C45.083 12.9885 44.1475 12.5976 43.4577 11.9016C42.7679 11.2057 42.3804 10.2617 42.3804 9.27752V3.71101C42.3804 2.72679 42.7679 1.78288 43.4577 1.08693Z" fill="#EF9F0B"/>
<path d="M79.9227 37.8787C79.233 38.5746 78.2974 38.9656 77.322 38.9656H71.8049C70.8294 38.9656 69.8939 38.5746 69.2041 37.8787C68.5143 37.1827 68.1268 36.2388 68.1268 35.2546C68.1268 34.2704 68.5143 33.3265 69.2041 32.6305C69.8939 31.9346 70.8294 31.5436 71.8049 31.5436H77.322C78.2974 31.5436 79.233 31.9346 79.9227 32.6305C80.6125 33.3265 81 34.2704 81 35.2546C81 36.2388 80.6125 37.1827 79.9227 37.8787Z" fill="url(#paint8_linear_1_59)"/>
<path d="M71.8409 12.9533C71.8409 11.9693 71.4535 11.0255 70.764 10.3296C70.4224 9.98484 70.0169 9.71135 69.5706 9.52476C69.1242 9.33817 68.6458 9.24213 68.1627 9.24213C67.6796 9.24213 67.2011 9.33817 66.7548 9.52476C66.3085 9.71135 65.9029 9.98484 65.5614 10.3296L61.6608 14.2651C61.3095 14.6074 61.0293 15.0169 60.8365 15.4697C60.6438 15.9225 60.5423 16.4094 60.5381 16.9022C60.5338 17.3949 60.6269 17.8836 60.8118 18.3396C60.9968 18.7957 61.2699 19.21 61.6152 19.5585C61.9605 19.9069 62.3712 20.1825 62.8232 20.3691C63.2753 20.5557 63.7596 20.6496 64.248 20.6453C64.7363 20.641 65.2189 20.5386 65.6677 20.3441C66.1164 20.1496 66.5223 19.8669 66.8616 19.5125L70.764 15.577C71.4535 14.881 71.8409 13.9373 71.8409 12.9533Z" fill="url(#paint9_linear_1_59)"/>
<path d="M43.4577 1.08693C44.1475 0.39098 45.083 0 46.0585 0C47.034 0 47.9695 0.39098 48.6593 1.08693C49.349 1.78288 49.7365 2.72679 49.7365 3.71101V9.27752C49.7365 10.2617 49.349 11.2057 48.6593 11.9016C47.9695 12.5976 47.034 12.9885 46.0585 12.9885C45.083 12.9885 44.1475 12.5976 43.4577 11.9016C42.7679 11.2057 42.3804 10.2617 42.3804 9.27752V3.71101C42.3804 2.72679 42.7679 1.78288 43.4577 1.08693Z" fill="url(#paint10_linear_1_59)"/>
<path d="M20.2725 12.9526C20.2723 13.9369 20.6596 14.8809 21.3493 15.577L25.2517 19.5143C25.5935 19.8589 25.9991 20.1322 26.4455 20.3185C26.8919 20.5049 27.3703 20.6007 27.8534 20.6006C28.3365 20.6004 28.8149 20.5042 29.2611 20.3175C29.7074 20.1308 30.1128 19.8573 30.4543 19.5125C30.7958 19.1677 31.0667 18.7584 31.2514 18.308C31.4361 17.8576 31.5311 17.3749 31.5309 16.8875C31.5307 16.4001 31.4354 15.9174 31.2504 15.4672C31.0653 15.0169 30.7942 14.6078 30.4525 14.2633L26.5519 10.3296C25.8622 9.6335 24.9268 9.24235 23.9513 9.24217C22.9758 9.242 22.0401 9.63282 21.3502 10.3287C20.6603 11.0245 20.2726 11.9684 20.2725 12.9526Z" fill="url(#paint11_linear_1_59)"/>
<path d="M10.1025 33.6576C10.7922 34.3536 11.7278 34.7445 12.7032 34.7445H18.2203C19.1958 34.7445 20.1313 34.3536 20.8211 33.6576C21.5109 32.9617 21.8984 32.0178 21.8984 31.0335C21.8984 30.0493 21.5109 29.1054 20.8211 28.4095C20.1313 27.7135 19.1958 27.3225 18.2203 27.3225H12.7032C11.7278 27.3225 10.7922 27.7135 10.1025 28.4095C9.41268 29.1054 9.02518 30.0493 9.02518 31.0335C9.02518 32.0178 9.41268 32.9617 10.1025 33.6576Z" fill="url(#paint12_linear_1_59)"/>
<path d="M27.8187 71.5926C28.5879 73.8591 29.1106 75.5136 29.1142 75.5251L17.3643 77.8186C15.5357 78.1616 13.9683 78.4533 12.7186 78.6806C10.5149 79.0826 8.23335 78.5546 6.46655 77.1966C11.493 76.087 19.455 73.9472 27.8187 71.5926Z" fill="#D9D9D9" style="mix-blend-mode:multiply"/>
<path d="M24.5911 76.4291C21.6585 77.0054 20.6223 77.1889 24.5899 76.4221L24.5911 76.4291Z" fill="#D9D9D9" style="mix-blend-mode:multiply"/>
<path d="M62.5517 61.4163C63.291 63.2743 64.049 65.2286 64.8359 67.3015C62.5166 67.9185 60.162 68.5226 57.7958 69.109C57.1829 67.2656 56.5299 65.4359 55.838 63.6212C55.8164 63.565 55.7946 63.5089 55.773 63.4526C59.9313 62.2106 62.5517 61.4163 62.5517 61.4163Z" fill="#D9D9D9" style="mix-blend-mode:multiply"/>
<path d="M50.9574 65.5512C51.6417 67.3448 52.1472 68.7734 52.4781 69.7438L52.4764 69.7434C52.5468 69.9452 52.6153 70.147 52.6819 70.3485C48.8627 71.2562 45.0649 72.1169 41.3965 72.9174L34.1999 74.4575C34.1999 74.4575 33.5467 72.6825 32.6069 70.2344C39.0761 68.3863 45.4988 66.5038 50.727 64.9547C50.8039 65.1535 50.8812 65.3521 50.9574 65.5512Z" fill="#D9D9D9" style="mix-blend-mode:multiply"/>
</g>
<defs>
<filter id="filter0_d_1_59" x="-0.5" y="0" width="82" height="81.5" filterUnits="userSpaceOnUse" color-interpolation-filters="sRGB">
<feFlood flood-opacity="0" result="BackgroundImageFix"/>
<feColorMatrix in="SourceAlpha" type="matrix" values="0 0 0 0 0 0 0 0 0 0 0 0 0 0 0 0 0 0 127 0" result="hardAlpha"/>
<feOffset dy="1"/>
<feGaussianBlur stdDeviation="0.25"/>
<feComposite in2="hardAlpha" operator="out"/>
<feColorMatrix type="matrix" values="0 0 0 0 0 0 0 0 0 0 0 0 0 0 0 0 0 0 0.25 0"/>
<feBlend mode="normal" in2="BackgroundImageFix" result="effect1_dropShadow_1_59"/>
<feBlend mode="normal" in="SourceGraphic" in2="effect1_dropShadow_1_59" result="shape"/>
</filter>
<linearGradient id="paint0_linear_1_59" x1="38.0764" y1="33.2106" x2="35.3222" y2="74.5322" gradientUnits="userSpaceOnUse">
<stop stop-color="#FFBB3D"/>
<stop offset="1" stop-color="#D87236"/>
</linearGradient>
<linearGradient id="paint1_linear_1_59" x1="56.1539" y1="21.124" x2="52.9769" y2="68.7878" gradientUnits="userSpaceOnUse">
<stop stop-color="#52ABFF"/>
<stop offset="1" stop-color="#7F4CF8"/>
</linearGradient>
<linearGradient id="paint2_linear_1_59" x1="16.4345" y1="48.1275" x2="14.3743" y2="79.0371" gradientUnits="userSpaceOnUse">
<stop stop-color="#3FA2FF"/>
<stop offset="1" stop-color="#7F4CF8"/>
</linearGradient>
<linearGradient id="paint3_linear_1_59" x1="16.4345" y1="48.1275" x2="14.3743" y2="79.0371" gradientUnits="userSpaceOnUse">
<stop stop-color="#3FA2FF"/>
<stop offset="1" stop-color="#7F4CF8"/>
</linearGradient>
<linearGradient id="paint4_linear_1_59" x1="45.0126" y1="0" x2="45.0126" y2="38.9656" gradientUnits="userSpaceOnUse">
<stop stop-color="#FEAE18"/>
<stop offset="1" stop-color="#AD5019"/>
</linearGradient>
<linearGradient id="paint5_linear_1_59" x1="45.0126" y1="0" x2="45.0126" y2="38.9656" gradientUnits="userSpaceOnUse">
<stop stop-color="#399CF9"/>
<stop offset="1" stop-color="#5C24E0"/>
</linearGradient>
<linearGradient id="paint6_linear_1_59" x1="45.0126" y1="0" x2="45.0126" y2="38.9656" gradientUnits="userSpaceOnUse">
<stop stop-color="#399CF9"/>
<stop offset="1" stop-color="#5C24E0"/>
</linearGradient>
<linearGradient id="paint7_linear_1_59" x1="45.0126" y1="0" x2="45.0126" y2="38.9656" gradientUnits="userSpaceOnUse">
<stop stop-color="#FEAE18"/>
<stop offset="1" stop-color="#AD5019"/>
</linearGradient>
<linearGradient id="paint8_linear_1_59" x1="74.5634" y1="31.5436" x2="74.5634" y2="38.9656" gradientUnits="userSpaceOnUse">
<stop stop-color="#FFBE46"/>
<stop offset="1" stop-color="#CE7619"/>
</linearGradient>
<linearGradient id="paint9_linear_1_59" x1="66.1894" y1="9.24213" x2="66.1894" y2="20.6454" gradientUnits="userSpaceOnUse">
<stop stop-color="#6DB8FF"/>
<stop offset="1" stop-color="#4E56EA"/>
</linearGradient>
<linearGradient id="paint10_linear_1_59" x1="46.0585" y1="0" x2="46.0585" y2="12.9885" gradientUnits="userSpaceOnUse">
<stop stop-color="#FFBE46"/>
<stop offset="1" stop-color="#CE7619"/>
</linearGradient>
<linearGradient id="paint11_linear_1_59" x1="25.9017" y1="9.24217" x2="25.9017" y2="20.6006" gradientUnits="userSpaceOnUse">
<stop stop-color="#6DB8FF"/>
<stop offset="1" stop-color="#4E56EA"/>
</linearGradient>
<linearGradient id="paint12_linear_1_59" x1="15.4618" y1="27.3225" x2="15.4618" y2="34.7445" gradientUnits="userSpaceOnUse">
<stop stop-color="#FFBB3D"/>
<stop offset="1" stop-color="#D87236"/>
</linearGradient>
</defs>
</svg>
